<?xml version="1.0" standalone="no"?>
<!DOCTYPE svg PUBLIC "-//W3C//DTD SVG 20010904//EN"
 "http://www.w3.org/TR/2001/REC-SVG-20010904/DTD/svg10.dtd">
<svg version="1.0" xmlns="http://www.w3.org/2000/svg"
 width="128.000000pt" height="128.000000pt" viewBox="0 0 128.000000 128.000000"
 preserveAspectRatio="xMidYMid meet">
<metadata>
Created by potrace 1.11, written by Peter Selinger 2001-2013
</metadata>
<g transform="translate(0.000000,128.000000) scale(0.100000,-0.100000)"
fill="#000000" stroke="none">
<path d="M548 1227 l-88 -51 0 -111 0 -110 50 -27 50 -28 0 -60 c0 -68 4 -68
-82 -13 -37 23 -38 25 -38 82 0 51 -3 61 -20 66 -11 4 -49 24 -85 46 -36 21
-69 39 -74 39 -5 0 -48 -23 -95 -51 l-86 -50 0 -108 0 -109 85 -47 c47 -27 85
-52 85 -57 0 -5 -8 -12 -18 -16 -9 -4 -48 -24 -85 -46 l-68 -38 3 -111 3 -110
50 -29 c28 -16 69 -38 91 -50 l41 -21 84 49 84 50 5 68 c5 65 7 70 37 86 17 9
43 24 57 33 l26 17 0 -69 0 -70 -50 -28 -50 -28 0 -110 0 -111 89 -51 89 -51
91 51 91 50 0 111 0 111 -50 27 -50 28 0 70 0 69 58 -33 57 -34 5 -68 5 -68
84 -50 85 -49 64 34 c36 19 77 42 93 51 l29 18 0 109 0 109 -85 48 c-47 26
-85 50 -85 54 0 4 38 28 85 54 l86 48 -3 111 -3 112 -88 49 -89 49 -36 -20
c-21 -11 -61 -33 -89 -49 l-53 -29 0 -56 c0 -62 -1 -64 -72 -103 l-48 -27 0
61 0 60 50 28 50 27 0 110 c0 94 -3 112 -17 121 -10 6 -52 29 -93 51 l-75 40
-87 -50z m-75 -569 c16 -12 13 -16 -40 -47 l-58 -33 -52 28 c-29 16 -53 31
-53 34 0 3 26 19 57 37 l57 31 35 -18 c20 -10 44 -24 54 -32z m537 -18 c0 -5
-23 -20 -50 -34 l-50 -26 -60 31 c-33 17 -60 33 -60 35 0 2 23 17 52 33 l52
30 58 -31 c32 -17 58 -34 58 -38z"/>
</g>
</svg>
