<svg id="圖層_1" data-name="圖層 1" xmlns="http://www.w3.org/2000/svg" viewBox="0 0 1401.34 256.64"><defs><style>.cls-1{fill:#fff;}</style></defs><title>Logo 檔案轉存</title><path class="cls-1" d="M73.45,256.64a17.48,17.48,0,0,1-16.08-24.26L150.9,10.68a17.46,17.46,0,1,1,32.18,13.58L89.55,246A17.46,17.46,0,0,1,73.45,256.64Z"/><path class="cls-1" d="M205.25,256.64a17.48,17.48,0,0,1-16.08-24.26L282.7,10.68a17.46,17.46,0,0,1,32.18,13.58L221.35,246A17.47,17.47,0,0,1,205.25,256.64Z"/><path class="cls-1" d="M261.25,256.64a17.48,17.48,0,0,1-16.08-24.26L338.7,10.68a17.46,17.46,0,0,1,32.18,13.58L277.35,246A17.47,17.47,0,0,1,261.25,256.64Z"/><path class="cls-1" d="M317.8,256.64a17.27,17.27,0,0,1-6.78-1.38,17.46,17.46,0,0,1-9.31-22.88L359.14,96.26a17.46,17.46,0,0,1,32.18,13.58L333.9,246A17.48,17.48,0,0,1,317.8,256.64Z"/><path class="cls-1" d="M17.46,256.64a17.27,17.27,0,0,1-6.78-1.38,17.46,17.46,0,0,1-9.31-22.88L37.48,146.8a17.46,17.46,0,1,1,32.18,13.58L33.56,246A17.48,17.48,0,0,1,17.46,256.64Z"/><path class="cls-1" d="M186.88,120.52a17.27,17.27,0,0,1-6.78-1.38,17.46,17.46,0,0,1-9.31-22.88L206.9,10.68a17.46,17.46,0,0,1,32.18,13.58L203,109.84A17.48,17.48,0,0,1,186.88,120.52Z"/><path class="cls-1" d="M485.06,202.85A8.85,8.85,0,0,1,494,194h6.91a9,9,0,0,1,8.89,8.89v3.21c0,11.86,2.23,17.54,5.68,20.5,2.72,2.72,6.92,3.21,10.38,3.21,10.37,0,16-4.44,16-17.53,0-11.61-11.36-20.75-23.46-30.14v.25c-16.31-12.85-33.35-26.18-33.35-50.64,0-27.91,14.58-44,40.76-44,26.67,0,40.76,17.05,40.76,48.42v3.46a8.86,8.86,0,0,1-8.9,8.89h-6.91a8.86,8.86,0,0,1-8.9-8.89v-3.46c0-16.31-5.18-23.72-16-23.72-10.38,0-16.06,5.69-16.06,18.53,0,12.6,12.11,22.23,24.21,31.62h-.25c16.31,12.6,32.86,25.19,32.86,49.15,0,27.67-14.58,42.49-40.76,42.49-27.17,0-40.76-15.81-40.76-48.17Z"/><path class="cls-1" d="M656.72,88a8.85,8.85,0,0,1,8.89,8.89v6.67a8.85,8.85,0,0,1-8.89,8.89H618.93v46.44h31.12a8.85,8.85,0,0,1,8.89,8.89v6.67a8.86,8.86,0,0,1-8.89,8.9H618.93V230h37.79a8.85,8.85,0,0,1,8.89,8.89v6.67a8.85,8.85,0,0,1-8.89,8.89H603.37a8.86,8.86,0,0,1-8.9-8.89V96.88a8.86,8.86,0,0,1,8.9-8.89Z"/><path class="cls-1" d="M688.83,136.16c0-18.77,5.44-31.13,13.34-38.54,8.15-7.41,18-9.63,27.42-9.63,9.14,0,19,2.22,27.17,9.63,7.9,7.41,13.09,19.77,13.09,38.54v3.46a8.8,8.8,0,0,1-8.65,8.89H754a8.85,8.85,0,0,1-8.89-8.89v-3.46c0-16.55-5.44-23.72-15.56-23.72-10.38,0-15.81,7.17-15.81,23.72v69.9c0,16.55,5.19,24,15.81,24,4.69,0,9.14-2,11.36-4.44,3-4,4.2-10.63,4.2-19.52V202.6a8.85,8.85,0,0,1,8.89-8.89h7.16a8.8,8.8,0,0,1,8.65,8.89v3.46c0,19.52-5.19,30.88-12.85,38.53-8.15,7.91-18.52,9.88-27.41,9.88-9.39,0-19.52-2-27.67-9.88-7.65-7.65-13.09-19-13.09-38.53Z"/><path class="cls-1" d="M804.43,254.47a8.85,8.85,0,0,1-8.89-8.89V96.88A8.85,8.85,0,0,1,804.43,88h24.45c28.91,0,41.75,15.81,41.75,47.67,0,23-10.62,35.57-10.62,35.57,6.42,7.91,10.62,20.5,10.62,35.57,0,31.87-12.84,47.67-41.75,47.67Zm15.81-142v46.44h8.64c12.11,0,17-6.67,17-23.22s-4.94-23.22-17-23.22Zm0,70.9V230h8.64c12.11,0,17-6.67,17-23.22,0-16.79-4.94-23.46-17-23.46Z"/><path class="cls-1" d="M895.08,96.64a8.81,8.81,0,0,1,8.65-8.9h6.91a8.87,8.87,0,0,1,8.9,8.9V209c0,13.09,4,20.74,16.05,20.74,12.6,0,16.06-8.89,16.06-20.74V96.64a8.81,8.81,0,0,1,8.64-8.9h6.92a8.86,8.86,0,0,1,8.89,8.9V209c0,27.66-11.86,45.2-40.51,45.2-29.64,0-40.51-19-40.51-45.2Z"/><path class="cls-1" d="M1085.73,105.28,1033.36,230h42.49a9,9,0,0,1,8.89,8.89v6.67a9,9,0,0,1-8.89,8.89h-63.73a8.81,8.81,0,0,1-8.65-8.89v-8.64l52.12-124.5h-44.46a8.85,8.85,0,0,1-8.89-8.89V96.88a8.85,8.85,0,0,1,8.89-8.89h65.71a8.85,8.85,0,0,1,8.89,8.89Z"/><path class="cls-1" d="M1194.66,105.28,1142.29,230h42.49a9,9,0,0,1,8.89,8.89v6.67a9,9,0,0,1-8.89,8.89h-63.73a8.8,8.8,0,0,1-8.64-8.89v-8.64l52.11-124.5h-44.46a8.85,8.85,0,0,1-8.89-8.89V96.88a8.85,8.85,0,0,1,8.89-8.89h65.71a8.85,8.85,0,0,1,8.89,8.89Z"/><path class="cls-1" d="M1285.11,88a8.85,8.85,0,0,1,8.89,8.89v6.67a8.85,8.85,0,0,1-8.89,8.89h-37.79v46.44h31.12a8.85,8.85,0,0,1,8.89,8.89v6.67a8.86,8.86,0,0,1-8.89,8.9h-31.12V230h37.79a8.85,8.85,0,0,1,8.89,8.89v6.67a8.85,8.85,0,0,1-8.89,8.89h-53.35a8.86,8.86,0,0,1-8.9-8.89V96.88a8.86,8.86,0,0,1,8.9-8.89Z"/><path class="cls-1" d="M1399.62,245.33a8.86,8.86,0,0,1-8.9,8.9h-6.91a8.85,8.85,0,0,1-8.89-8.9V204.08c0-12.35-6.92-19.26-19-19.26h-11.12v60.51a8.81,8.81,0,0,1-8.65,8.9h-6.91a8.85,8.85,0,0,1-8.89-8.9V96.64a8.86,8.86,0,0,1,8.89-8.9h31.12c30.38,0,41,15.32,41,48.42,0,15.31-2.71,27.66-10.37,35.32l-2,2c7.16,7.65,10.62,17.78,10.62,30.62Zm-54.84-85.46h11.12c13.83,0,21-6.92,21-23.71s-3.7-23.72-16.55-23.72h-15.56Z"/></svg>