<?xml version="1.0" encoding="utf-8"?>
<!-- Generator: Adobe Illustrator 16.0.0, SVG Export Plug-In . SVG Version: 6.00 Build 0)  -->
<!DOCTYPE svg PUBLIC "-//W3C//DTD SVG 1.1//EN" "http://www.w3.org/Graphics/SVG/1.1/DTD/svg11.dtd">
<svg version="1.1" id="圖層_1" xmlns="http://www.w3.org/2000/svg" xmlns:xlink="http://www.w3.org/1999/xlink" x="0px" y="0px"
	 width="38px" height="38px" viewBox="0 0 38 38" enable-background="new 0 0 38 38" xml:space="preserve">
<circle fill="#2196F3" cx="19" cy="18.988" r="19"/>
<g>
	<path fill="#FEFEFE" d="M19.412,30.002L18.8,29.561l-6.396-4.48l-0.045-0.482l-1.383-12.731l8.301-2.783l0.441,0.035l8.104,2.748
		l-1.468,13.212l-0.332,0.248L19.412,30.002z M13.66,24.334l5.732,4.029l5.748-4.031l1.256-11.552l-7.008-2.376l-6.985,2.376
		L13.66,24.334z"/>
	<path fill="#FEFEFE" d="M19.406,23.023c-2.645,0-4.798-2.145-4.798-4.782c0-2.646,2.153-4.798,4.798-4.798
		c2.637,0,4.783,2.152,4.783,4.798C24.189,20.879,22.043,23.023,19.406,23.023z M19.406,14.764c-1.917,0-3.477,1.56-3.477,3.478
		c0,1.907,1.56,3.462,3.477,3.462c1.909,0,3.463-1.555,3.463-3.462C22.869,16.323,21.315,14.764,19.406,14.764z"/>
	<path fill-rule="evenodd" clip-rule="evenodd" fill="#FEFEFE" d="M16.928,18.588l0.229-0.229c0.09-0.092,0.242-0.092,0.35,0
		l0.855,0.855l2.932-2.932c0.091-0.092,0.26-0.092,0.351,0l0.214,0.214c0.106,0.107,0.106,0.26,0,0.351l-3.098,3.114l-0.23,0.214
		v0.016l0,0h-0.015v0.014l0,0l0,0H18.5l0,0l0,0v0.017l0,0h-0.015l0,0l0,0l0,0h-0.016l0,0v0.016l0,0l0,0h-0.015l0,0l0,0h-0.015l0,0
		l0,0l-0.016,0.015l0,0l0,0l0,0h-0.015l0,0l0,0h-0.016l0,0l0,0l0,0h-0.015l0,0l0,0h-0.016l0,0l0,0l0,0h-0.016l0,0h-0.014l0,0l0,0
		l0,0h-0.016l0,0l0,0h-0.016l0,0l0,0h-0.015l0,0v-0.015h-0.015l0,0l0,0h-0.016l0,0H18.24v-0.016l0,0h-0.015l0,0l0,0l-0.015-0.017
		l0,0l0,0l0,0h-0.016v-0.014l0,0h-0.016v-0.016l-0.213-0.214l-1.037-1.023C16.836,18.832,16.836,18.679,16.928,18.588L16.928,18.588
		z"/>
</g>
</svg>
