<?xml version="1.0" encoding="utf-8"?>
<!-- Generator: Adobe Illustrator 16.0.0, SVG Export Plug-In . SVG Version: 6.00 Build 0)  -->
<!DOCTYPE svg PUBLIC "-//W3C//DTD SVG 1.1//EN" "http://www.w3.org/Graphics/SVG/1.1/DTD/svg11.dtd">
<svg version="1.1" id="圖層_1" xmlns="http://www.w3.org/2000/svg" xmlns:xlink="http://www.w3.org/1999/xlink" x="0px" y="0px"
	 width="38px" height="38px" viewBox="0 0 38 38" enable-background="new 0 0 38 38" xml:space="preserve">
<circle fill="#2196F3" cx="19" cy="18.988" r="19"/>
<g>
	<path fill="#FFFFFF" d="M28.509,11.237h-3.143v-0.7c0-0.318-0.258-0.575-0.576-0.575c-0.317,0-0.575,0.257-0.575,0.575v0.7h-2.709
		v-0.7c0-0.318-0.258-0.575-0.576-0.575c-0.317,0-0.575,0.257-0.575,0.575v0.7h-2.709v-0.7c0-0.318-0.258-0.575-0.575-0.575
		c-0.318,0-0.577,0.257-0.577,0.575v0.7h-2.708v-0.7c0-0.318-0.259-0.575-0.576-0.575c-0.318,0-0.576,0.257-0.576,0.575v0.7H9.491
		c-0.317,0-0.575,0.258-0.575,0.576v15.625c0,0.318,0.258,0.576,0.575,0.576h19.018c0.317,0,0.575-0.258,0.575-0.576V11.812
		C29.084,11.495,28.826,11.237,28.509,11.237z M27.933,26.862H10.066V12.388h2.566v0.811c0,0.318,0.258,0.575,0.576,0.575
		c0.317,0,0.576-0.257,0.576-0.575v-0.811h2.708v0.811c0,0.318,0.259,0.575,0.577,0.575c0.317,0,0.575-0.257,0.575-0.575v-0.811
		h2.709v0.811c0,0.318,0.258,0.575,0.575,0.575c0.318,0,0.576-0.257,0.576-0.575v-0.811h2.709v0.811
		c0,0.318,0.258,0.575,0.575,0.575c0.318,0,0.576-0.257,0.576-0.575v-0.811h2.566V26.862z"/>
	<path fill="#FFFFFF" d="M12.903,18.001c-0.317,0-0.575-0.257-0.575-0.575v-0.669c0-0.318,0.258-0.575,0.575-0.575
		c0.318,0,0.575,0.257,0.575,0.575v0.669C13.479,17.744,13.222,18.001,12.903,18.001z"/>
	<path fill="#FFFFFF" d="M15.956,18.001c-0.318,0-0.575-0.257-0.575-0.575v-0.669c0-0.318,0.257-0.575,0.575-0.575
		c0.317,0,0.575,0.257,0.575,0.575v0.669C16.531,17.744,16.273,18.001,15.956,18.001z"/>
	<path fill="#FFFFFF" d="M19.008,18.001c-0.318,0-0.575-0.257-0.575-0.575v-0.669c0-0.318,0.257-0.575,0.575-0.575
		s0.575,0.257,0.575,0.575v0.669C19.583,17.744,19.326,18.001,19.008,18.001z"/>
	<path fill="#FFFFFF" d="M22.061,18.001c-0.318,0-0.575-0.257-0.575-0.575v-0.669c0-0.318,0.257-0.575,0.575-0.575
		c0.317,0,0.575,0.257,0.575,0.575v0.669C22.636,17.744,22.378,18.001,22.061,18.001z"/>
	<path fill="#FFFFFF" d="M12.903,24.757c-0.317,0-0.575-0.258-0.575-0.575v-0.68c0-0.318,0.258-0.575,0.575-0.575
		c0.318,0,0.575,0.257,0.575,0.575v0.68C13.479,24.499,13.222,24.757,12.903,24.757z"/>
	<path fill="#FFFFFF" d="M15.956,24.757c-0.318,0-0.575-0.258-0.575-0.575v-0.68c0-0.318,0.257-0.575,0.575-0.575
		c0.317,0,0.575,0.257,0.575,0.575v0.68C16.531,24.499,16.273,24.757,15.956,24.757z"/>
	<path fill="#FFFFFF" d="M19.008,24.757c-0.318,0-0.575-0.258-0.575-0.575v-0.68c0-0.318,0.257-0.575,0.575-0.575
		s0.575,0.257,0.575,0.575v0.68C19.583,24.499,19.326,24.757,19.008,24.757z"/>
	<path fill="#FFFFFF" d="M25.096,17.991c-0.317,0-0.576-0.257-0.576-0.575v-0.669c0-0.318,0.259-0.576,0.576-0.576
		c0.318,0,0.576,0.258,0.576,0.576v0.669C25.672,17.733,25.414,17.991,25.096,17.991z"/>
	<path fill="#FFFFFF" d="M12.903,21.383c-0.317,0-0.575-0.258-0.575-0.576v-0.68c0-0.317,0.258-0.575,0.575-0.575
		c0.318,0,0.575,0.258,0.575,0.575v0.68C13.479,21.125,13.222,21.383,12.903,21.383z"/>
	<path fill="#FFFFFF" d="M22.687,22.275h-1.33c-0.622,0-1.129-0.507-1.129-1.129v-1.324c0-0.623,0.507-1.129,1.129-1.129h1.33
		c0.622,0,1.129,0.507,1.129,1.129v1.324C23.815,21.769,23.309,22.275,22.687,22.275z M22.664,19.822l-1.308,0.021l0.022,1.303
		l1.285-0.021V19.822z"/>
	<path fill="#FFFFFF" d="M25.096,21.383c-0.317,0-0.576-0.258-0.576-0.576v-0.68c0-0.317,0.259-0.575,0.576-0.575
		c0.318,0,0.576,0.258,0.576,0.575v0.68C25.672,21.125,25.414,21.383,25.096,21.383z"/>
	<path fill="#FFFFFF" d="M18.99,21.383c-0.317,0-0.575-0.258-0.575-0.576v-0.68c0-0.317,0.258-0.575,0.575-0.575
		c0.318,0,0.577,0.258,0.577,0.575v0.68C19.567,21.125,19.309,21.383,18.99,21.383z"/>
	<path fill="#FFFFFF" d="M15.938,21.383c-0.318,0-0.575-0.258-0.575-0.576v-0.68c0-0.317,0.257-0.575,0.575-0.575
		c0.317,0,0.575,0.258,0.575,0.575v0.68C16.514,21.125,16.256,21.383,15.938,21.383z"/>
</g>
</svg>
