<?xml version="1.0" encoding="utf-8"?>
<!-- Generator: Adobe Illustrator 16.0.0, SVG Export Plug-In . SVG Version: 6.00 Build 0)  -->
<!DOCTYPE svg PUBLIC "-//W3C//DTD SVG 1.1//EN" "http://www.w3.org/Graphics/SVG/1.1/DTD/svg11.dtd">
<svg version="1.1" id="圖層_1" xmlns="http://www.w3.org/2000/svg" xmlns:xlink="http://www.w3.org/1999/xlink" x="0px" y="0px"
	 width="38px" height="38px" viewBox="0 0 38 38" enable-background="new 0 0 38 38" xml:space="preserve">
<circle fill="#2196F3" cx="19" cy="18.988" r="19"/>
<g>
	<path fill="#FFFFFF" d="M20.677,21.868c-0.66,0-1.197,0.536-1.197,1.197c0,0.639,0.549,1.182,1.197,1.182
		c0.66,0,1.198-0.53,1.198-1.182C21.875,22.404,21.337,21.868,20.677,21.868z M20.677,23.297c-0.127,0-0.247-0.111-0.247-0.231
		c0-0.132,0.115-0.248,0.247-0.248c0.139,0,0.247,0.109,0.247,0.248C20.924,23.193,20.813,23.297,20.677,23.297z"/>
	<path fill="#FFFFFF" d="M29.526,19.507h-1.511c-0.263,0-0.475,0.213-0.475,0.475v0.408h-1.05c-0.264,0-0.476,0.214-0.476,0.476
		v1.003h-3.378c-0.404-0.662-1.129-1.107-1.961-1.107c-0.239,0-0.466,0.046-0.682,0.115l-2.437-2.436l3.631-3.63
		c0.185-0.186,0.185-0.486,0-0.672l-3.79-3.79c-0.186-0.185-0.486-0.185-0.671,0l-8.495,8.478c-0.002,0.002-0.002,0.005-0.005,0.008
		c-0.001,0.001-0.004,0.001-0.005,0.003l-1.767,1.878c-0.139,0.147-0.169,0.366-0.075,0.546c0.083,0.158,0.246,0.254,0.42,0.254
		c0.023,0,0.048-0.002,0.072-0.006l2.918-0.445l2.229,2.239c0.089,0.089,0.21,0.139,0.336,0.139c0,0,0,0,0,0
		c0.125,0,0.246-0.05,0.335-0.139l3.375-3.373l2.438,2.438c-0.07,0.222-0.119,0.452-0.119,0.697c0,1.263,1.027,2.289,2.29,2.289
		c0.835,0,1.561-0.446,1.966-1.107h3.373v1.003c0,0.262,0.212,0.475,0.476,0.475h1.05v0.424c0,0.263,0.212,0.475,0.475,0.475h1.511
		c0.262,0,0.474-0.212,0.474-0.475v-6.167C30,19.72,29.788,19.507,29.526,19.507z M8.09,20.364l0.485-0.516l0.376,0.384L8.09,20.364
		z M12.359,22.297L9.24,19.164l7.823-7.809l3.119,3.118l-3.84,3.84l-0.61,0.61c0,0,0,0.001-0.001,0.001L12.359,22.297z M18.99,21.51
		l-2.251-2.251l0.147-0.147l2.251,2.251c-0.015,0.014-0.027,0.028-0.042,0.043c-0.024,0.021-0.045,0.043-0.066,0.066
		C19.017,21.483,19.002,21.497,18.99,21.51z M20.677,24.405c-0.738,0-1.34-0.601-1.34-1.34c0-0.253,0.073-0.488,0.192-0.69
		c0.019-0.03,0.035-0.062,0.056-0.091c0.021-0.028,0.046-0.057,0.067-0.083c0.07-0.084,0.147-0.162,0.235-0.225
		c0.004-0.004,0.008-0.009,0.013-0.013c0.045-0.032,0.094-0.059,0.143-0.085c0.189-0.104,0.403-0.17,0.634-0.17
		c0.747,0,1.355,0.607,1.355,1.356C22.032,23.805,21.424,24.405,20.677,24.405z M22.971,23.297c0.008-0.076,0.011-0.153,0.011-0.231
		c0-0.084-0.004-0.166-0.011-0.248h3.045v0.479H22.971z M26.965,24.773v-1.001v-1.429V21.34h0.576v3.434H26.965z M29.051,25.673
		H28.49V25.25v-4.385v-0.409h0.561V25.673z"/>
</g>
</svg>
