<?xml version="1.0" encoding="utf-8"?>
<!-- Generator: Adobe Illustrator 16.0.0, SVG Export Plug-In . SVG Version: 6.00 Build 0)  -->
<!DOCTYPE svg PUBLIC "-//W3C//DTD SVG 1.1//EN" "http://www.w3.org/Graphics/SVG/1.1/DTD/svg11.dtd">
<svg version="1.1" id="圖層_1" xmlns="http://www.w3.org/2000/svg" xmlns:xlink="http://www.w3.org/1999/xlink" x="0px" y="0px"
	 width="38px" height="38px" viewBox="0 0 38 38" enable-background="new 0 0 38 38" xml:space="preserve">
<circle fill="#2196F3" cx="19" cy="18.988" r="19"/>
<path fill="#FFFFFF" d="M28.998,18.409c0-1.385-0.837-2.631-2.077-3.185v-4.281c0-0.954-0.776-1.73-1.73-1.73h-0.186
	c-0.428,0-0.765,0.353-1.668,1.297c-1.526,1.592-4.365,4.556-7.17,4.556H10.89c-1.179,0-2.138,0.959-2.138,2.139v2.407
	c0,1.181,0.959,2.139,2.138,2.139h0.182l1.307,5.517c0.197,0.833,1.021,1.485,1.877,1.485h1.886c0.484,0,0.958-0.312,1.233-0.814
	c0.272-0.494,0.279-1.034,0.021-1.441L16.14,24.52c-0.41-0.644-0.432-1.369-0.456-2.137c-0.006-0.207-0.014-0.418-0.027-0.632h0.51
	c2.805,0,5.643,2.964,7.169,4.557c0.904,0.943,1.241,1.297,1.669,1.297h0.186c0.954,0,1.73-0.776,1.73-1.73v-4.281
	C28.161,21.039,28.998,19.794,28.998,18.409z M9.916,19.612v-2.407c0-0.538,0.437-0.974,0.974-0.974h4.795v4.357h-0.679h-3.473
	H10.89C10.353,20.588,9.916,20.151,9.916,19.612z M14.521,22.419c0.026,0.85,0.056,1.812,0.636,2.726l1.257,1.978
	c0.009,0.014,0.018,0.104-0.047,0.234c-0.078,0.155-0.192,0.229-0.225,0.232h-1.885c-0.311,0-0.673-0.287-0.745-0.59l-1.244-5.248
	h2.222C14.506,21.968,14.514,22.189,14.521,22.419z M25.19,26.44h-0.066c-0.184-0.141-0.588-0.562-0.948-0.938
	c-1.531-1.6-4.29-4.477-7.327-4.868v-4.452c3.037-0.391,5.797-3.269,7.327-4.867c0.36-0.376,0.765-0.798,0.948-0.938h0.066
	c0.312,0,0.566,0.254,0.566,0.566v4.574c-0.013,0.071-0.014,0.141,0,0.209v5.363c-0.014,0.068-0.013,0.139,0,0.21v4.574
	C25.757,26.187,25.502,26.44,25.19,26.44z M26.921,20.247V16.57c0.558,0.433,0.912,1.105,0.912,1.839
	C27.833,19.142,27.479,19.814,26.921,20.247z"/>
</svg>
