<?xml version="1.0" encoding="utf-8"?>
<!-- Generator: Adobe Illustrator 16.0.0, SVG Export Plug-In . SVG Version: 6.00 Build 0)  -->
<!DOCTYPE svg PUBLIC "-//W3C//DTD SVG 1.1//EN" "http://www.w3.org/Graphics/SVG/1.1/DTD/svg11.dtd">
<svg version="1.1" id="圖層_1" xmlns="http://www.w3.org/2000/svg" xmlns:xlink="http://www.w3.org/1999/xlink" x="0px" y="0px"
	 width="38px" height="38px" viewBox="0 0 38 38" enable-background="new 0 0 38 38" xml:space="preserve">
<circle fill="#2196F3" cx="19" cy="18.988" r="19"/>
<path fill="#FFFFFF" d="M29.066,20.791c-0.611-0.555-1.19-0.753-1.655-0.912c-0.37-0.127-0.663-0.227-0.955-0.487
	c-0.58-0.52-0.669-0.77-0.188-1.539c0.646-1.033,1.064-2.427,1.064-3.551c0-2.225-1.584-3.968-3.605-3.968
	c-0.345,0-0.675,0.068-0.996,0.167c-0.806-0.879-1.924-1.415-3.177-1.415c-1.254,0-2.372,0.536-3.178,1.415
	c-0.32-0.099-0.65-0.167-0.995-0.167c-2.022,0-3.605,1.743-3.605,3.968c0,1.125,0.417,2.519,1.063,3.551
	c0.481,0.77,0.393,1.02-0.188,1.538c-0.292,0.262-0.585,0.361-0.955,0.488c-0.465,0.159-1.043,0.357-1.655,0.912
	c-1.214,1.101-1.665,2.928-1.922,4.396c-0.071,0.408,0.201,0.797,0.609,0.868c0.044,0.008,0.087,0.012,0.13,0.012
	c0.357,0,0.674-0.256,0.738-0.62c0.216-1.233,0.576-2.75,1.453-3.544c0.382-0.347,0.73-0.466,1.133-0.604
	c0.445-0.152,0.949-0.325,1.468-0.788c1.162-1.039,1.304-2.104,0.46-3.452c-0.5-0.799-0.835-1.906-0.835-2.756
	c0-1.384,0.925-2.468,2.105-2.468c0.049,0,0.095,0.013,0.144,0.017c-0.279,0.643-0.448,1.357-0.448,2.128
	c0,1.412,0.532,3.164,1.355,4.462c0.665,1.049,0.577,1.854-0.285,2.615c-0.419,0.369-0.98,0.566-1.629,0.794
	c-0.771,0.271-1.646,0.578-2.406,1.259c-1.613,1.445-1.512,4.075-1.394,5.139c0.046,0.412,0.416,0.702,0.829,0.662
	c0.412-0.046,0.708-0.417,0.663-0.828c-0.073-0.649-0.222-2.848,0.903-3.855c0.538-0.481,1.2-0.714,1.901-0.96
	c0.73-0.257,1.486-0.521,2.125-1.085c1.423-1.255,1.622-2.869,0.561-4.543c-0.672-1.059-1.123-2.529-1.123-3.659
	c0-1.902,1.308-3.393,2.978-3.393c1.669,0,2.977,1.49,2.977,3.393c0,1.13-0.451,2.601-1.123,3.659
	c-1.061,1.675-0.862,3.288,0.561,4.543c0.639,0.562,1.395,0.828,2.125,1.085c0.701,0.246,1.363,0.479,1.901,0.96
	c1.124,1.007,0.976,3.206,0.903,3.855c-0.046,0.411,0.25,0.782,0.662,0.828c0.028,0.003,0.057,0.005,0.084,0.005
	c0.377,0,0.702-0.283,0.744-0.667c0.119-1.063,0.221-3.694-1.393-5.139c-0.761-0.681-1.635-0.987-2.406-1.259
	c-0.648-0.228-1.21-0.425-1.629-0.794c-0.861-0.76-0.949-1.566-0.285-2.615c0.823-1.298,1.355-3.05,1.355-4.462
	c0-0.771-0.169-1.485-0.448-2.128c0.049-0.004,0.096-0.017,0.145-0.017c1.181,0,2.105,1.084,2.105,2.468
	c0,0.849-0.336,1.956-0.836,2.756c-0.844,1.348-0.701,2.412,0.461,3.452c0.519,0.463,1.022,0.636,1.468,0.788
	c0.403,0.139,0.752,0.258,1.134,0.604c0.876,0.795,1.236,2.312,1.453,3.544c0.063,0.364,0.38,0.62,0.737,0.62
	c0.043,0,0.087-0.004,0.131-0.012c0.407-0.071,0.681-0.46,0.608-0.868C30.731,23.719,30.28,21.893,29.066,20.791z"/>
</svg>
